HIERARCHY
ROOT pelvis
{
	OFFSET 0.000000 0.000000 0.000000
	CHANNELS 6 Xposition Yposition Zposition Zrotation Yrotation Xrotation
	JOINT left_hip
	{
		OFFSET 0.055779 -0.080629 -0.017705
		CHANNELS 3 Zrotation Yrotation Xrotation
		JOINT left_knee
		{
			OFFSET 0.039469 -0.359247 0.009008
			CHANNELS 3 Zrotation Yrotation Xrotation
			JOINT left_ankle
			{
				OFFSET -0.013809 -0.389899 -0.036404
				CHANNELS 3 Zrotation Yrotation Xrotation
				JOINT left_foot
				{
					OFFSET 0.037897 -0.056346 0.116500
					CHANNELS 3 Zrotation Yrotation Xrotation
					End Site
					{
						OFFSET 0.000000 0.000000 0.000000
					}
				}
			}
		}
	}
	JOINT right_hip
	{
		OFFSET -0.057787 -0.088871 -0.013401
		CHANNELS 3 Zrotation Yrotation Xrotation
		JOINT right_knee
		{
			OFFSET -0.039496 -0.356943 -0.002206
			CHANNELS 3 Zrotation Yrotation Xrotation
			JOINT right_ankle
			{
				OFFSET 0.017959 -0.383749 -0.033094
				CHANNELS 3 Zrotation Yrotation Xrotation
				JOINT right_foot
				{
					OFFSET -0.031235 -0.058281 0.124713
					CHANNELS 3 Zrotation Yrotation Xrotation
					End Site
					{
						OFFSET 0.000000 0.000000 0.000000
					}
				}
			}
		}
	}
	JOINT spine1
	{
		OFFSET 0.004196 0.122659 -0.034271
		CHANNELS 3 Zrotation Yrotation Xrotation
		JOINT spine2
		{
			OFFSET 0.005122 0.143143 0.029537
			CHANNELS 3 Zrotation Yrotation Xrotation
			JOINT spine3
			{
				OFFSET -0.001923 0.057757 0.004628
				CHANNELS 3 Zrotation Yrotation Xrotation
				JOINT neck
				{
					OFFSET -0.013781 0.203940 -0.035143
					CHANNELS 3 Zrotation Yrotation Xrotation
					JOINT head
					{
						OFFSET 0.009065 0.086539 0.049216
						CHANNELS 3 Zrotation Yrotation Xrotation
						End Site
						{
							OFFSET 0.000000 0.000000 0.000000
						}
					}
				}
				JOINT left_collar
				{
					OFFSET 0.070315 0.109742 -0.020357
					CHANNELS 3 Zrotation Yrotation Xrotation
					JOINT left_shoulder
					{
						OFFSET 0.122280 0.043464 -0.020451
						CHANNELS 3 Zrotation Yrotation Xrotation
						JOINT left_elbow
						{
							OFFSET 0.245347 -0.013316 -0.020298
							CHANNELS 3 Zrotation Yrotation Xrotation
							JOINT left_wrist
							{
								OFFSET 0.251466 0.010925 -0.008411
								CHANNELS 3 Zrotation Yrotation Xrotation
								End Site
								{
									OFFSET 0.000000 0.000000 0.000000
								}
							}
						}
					}
				}
				JOINT right_collar
				{
					OFFSET -0.083386 0.108780 -0.024575
					CHANNELS 3 Zrotation Yrotation Xrotation
					JOINT right_shoulder
					{
						OFFSET -0.112806 0.044731 -0.008805
						CHANNELS 3 Zrotation Yrotation Xrotation
						JOINT right_elbow
						{
							OFFSET -0.248827 -0.010357 -0.028458
							CHANNELS 3 Zrotation Yrotation Xrotation
							JOINT right_wrist
							{
								OFFSET -0.255561 0.006434 -0.006231
								CHANNELS 3 Zrotation Yrotation Xrotation
								End Site
								{
									OFFSET 0.000000 0.000000 0.000000
								}
							}
						}
					}
				}
			}
		}
	}
}
MOTION
Frames: 14
Frame Time: 0.033333
-0.074251 0.602965 -2.118287 0.000000 0.000000 0.000000 -1.809983 0.171654 -6.943031 -0.014787 -0.091254 7.012679 0.488181 -0.053892 -0.074370 0.000000 0.000000 0.000000 -0.871118 -0.002595 -1.924090 -0.006170 -0.072307 -2.078622 -0.442587 0.131072 3.997940 0.000000 0.000000 0.000000 -1.744277 -0.047627 -0.003245 0.000000 0.000000 0.000000 -0.481543 -0.083391 0.001210 0.000000 0.000000 0.000000 0.000000 0.000000 0.000000 0.000000 0.000000 0.000000 0.000000 0.000000 0.000000 0.000000 0.000000 0.000000 0.000000 0.000000 0.000000 0.000000 0.000000 0.000000 0.000000 0.000000 0.000000 0.000000 0.000000 0.000000 0.000000 0.000000 0.000000
-0.044568 0.572078 -2.124591 1.273300 44.971000 2.274700 12.822970 29.455885 -28.593607 -3.260095 -1.143472 79.770233 -0.511623 22.369014 -31.404845 0.000000 0.000000 0.000000 -7.399044 -37.965396 -66.837766 -0.221227 0.662679 66.175677 0.560738 9.070590 3.312782 0.000000 0.000000 0.000000 -8.326565 -3.435670 7.904958 0.000000 0.000000 0.000000 5.107409 -0.551319 -10.149975 -15.631317 -15.020931 21.202531 29.073654 -26.170994 -25.168559 0.000000 0.000000 0.000000 -74.720253 -1.660602 79.636971 114.240677 -47.868703 -87.492703 -7.114572 7.951190 -83.624740 0.000000 0.000000 0.000000 59.267625 24.602000 -0.301393 -85.740325 53.014831 -63.019297 0.393944 2.486829 18.000432
-0.044519 0.572486 -2.124977 1.311800 44.997000 2.272600 12.818221 29.437897 -28.582367 -3.222979 -1.140197 79.718453 -0.486300 22.362184 -31.358283 0.000000 0.000000 0.000000 -7.405780 -37.985610 -66.709098 -0.216125 0.668415 66.235053 0.596169 9.402331 4.369727 0.000000 0.000000 0.000000 -8.293260 -3.372113 7.931882 0.000000 0.000000 0.000000 5.148469 -0.532070 -10.101540 -15.614040 -15.018013 21.097444 29.019556 -26.174283 -25.006617 0.000000 0.000000 0.000000 -74.709648 -1.719189 79.711623 114.205326 -47.882355 -87.463225 -7.116263 7.951365 -83.637662 0.000000 0.000000 0.000000 59.237931 24.558599 -0.389697 -85.724236 53.016331 -63.008056 0.395529 2.491697 18.036939
-0.044492 0.572567 -2.125040 1.343900 45.015700 2.268100 12.819440 29.413343 -28.544759 -3.217814 -1.139795 79.697380 -0.479010 22.410261 -31.313720 0.000000 0.000000 0.000000 -7.431510 -38.013616 -66.666263 -0.215135 0.669496 66.255990 0.603378 9.454352 4.500302 0.000000 0.000000 0.000000 -8.324236 -3.361250 7.938845 0.000000 0.000000 0.000000 5.165039 -0.529082 -10.072334 -15.615023 -14.998697 21.058304 28.991567 -26.143880 -24.927556 0.000000 0.000000 0.000000 -74.696131 -1.732103 79.764482 114.223687 -47.876857 -87.478570 -7.116777 7.951414 -83.640781 0.000000 0.000000 0.000000 59.230922 24.515660 -0.404818 -85.732763 53.015870 -63.013038 0.397184 2.496769 18.074951
-0.044604 0.572557 -2.125040 1.335200 45.034600 2.252000 12.841414 29.410408 -28.545641 -3.218917 -1.140768 79.699499 -0.483257 22.384777 -31.315436 0.000000 0.000000 0.000000 -7.427269 -38.019508 -66.658134 -0.216680 0.667096 66.262630 0.606811 9.444476 4.476338 0.000000 0.000000 0.000000 -8.324865 -3.373219 7.945565 0.000000 0.000000 0.000000 5.194138 -0.530762 -10.053536 -15.619689 -14.978882 20.989788 28.916372 -26.108196 -24.876914 0.000000 0.000000 0.000000 -74.715494 -1.761533 79.781227 114.235257 -47.874035 -87.488242 -7.113094 7.951000 -83.614866 0.000000 0.000000 0.000000 59.215609 24.510064 -0.403489 -85.740355 53.014630 -63.020009 0.392075 2.481070 17.957306
-0.044750 0.572548 -2.125029 1.325000 45.039300 2.244300 12.858533 29.451282 -28.567343 -3.214492 -1.142062 79.713526 -0.495668 22.304311 -31.341137 0.000000 0.000000 0.000000 -7.411492 -38.026599 -66.667668 -0.219904 0.663697 66.267942 0.610525 9.445565 4.484827 0.000000 0.000000 0.000000 -8.315556 -3.395569 7.941382 0.000000 0.000000 0.000000 5.210200 -0.533117 -10.043639 -15.621889 -14.943970 20.957503 28.845637 -26.045107 -24.846246 0.000000 0.000000 0.000000 -74.729944 -1.722131 79.765150 114.238037 -47.870317 -87.490455 -7.101882 7.949717 -83.533319 0.000000 0.000000 0.000000 59.231309 24.527936 -0.413571 -85.739322 53.013521 -63.018355 0.391846 2.480355 17.951991
-0.044851 0.572547 -2.125071 1.357400 45.056600 2.271600 12.843900 29.481894 -28.587823 -3.216169 -1.143084 79.724405 -0.488271 22.322109 -31.322285 0.000000 0.000000 0.000000 -7.406698 -38.068096 -66.703804 -0.218033 0.663567 66.286646 0.613331 9.464124 4.494763 0.000000 0.000000 0.000000 -8.325452 -3.400406 7.943415 0.000000 0.000000 0.000000 5.215728 -0.534517 -10.033241 -15.583397 -14.931359 20.913680 28.755800 -26.016586 -24.863756 0.000000 0.000000 0.000000 -74.734369 -1.709610 79.764695 114.251146 -47.869751 -87.501477 -7.103855 7.949938 -83.547459 0.000000 0.000000 0.000000 59.231286 24.551297 -0.461630 -85.712176 53.013912 -62.994642 0.394401 2.488231 18.010963
-0.044940 0.572549 -2.125050 1.345400 45.077300 2.251200 12.889761 29.527720 -28.589106 -3.218933 -1.142995 79.745929 -0.480077 22.343107 -31.288474 0.000000 0.000000 0.000000 -7.392803 -38.093717 -66.708485 -0.215668 0.664691 66.304884 0.615964 9.462917 4.490123 0.000000 0.000000 0.000000 -8.319462 -3.374417 7.967403 0.000000 0.000000 0.000000 5.212765 -0.531333 -10.003935 -15.554928 -14.912302 20.873994 28.732314 -25.957440 -24.922238 0.000000 0.000000 0.000000 -74.738329 -1.744089 79.807590 114.214577 -47.881561 -87.470946 -7.110030 7.950658 -83.592149 0.000000 0.000000 0.000000 59.207716 24.555620 -0.516582 -85.739592 53.010551 -63.018340 0.393365 2.485038 17.987093
-0.045079 0.572537 -2.124967 1.279600 45.072300 2.193600 12.972909 29.596749 -28.604736 -3.217916 -1.141441 79.790034 -0.486653 22.273840 -31.306028 0.000000 0.000000 0.000000 -7.334057 -38.095553 -66.716492 -0.218244 0.663620 66.313159 0.618622 9.459712 4.495161 0.000000 0.000000 0.000000 -8.251283 -3.337504 7.994157 0.000000 0.000000 0.000000 5.174365 -0.524666 -9.971752 -15.532913 -14.880814 20.855829 28.732224 -25.882295 -24.934536 0.000000 0.000000 0.000000 -74.736817 -1.755595 79.866181 114.188284 -47.887394 -87.449023 -7.112221 7.950904 -83.608006 0.000000 0.000000 0.000000 59.207648 24.563217 -0.545942 -85.697266 53.011841 -62.981525 0.396370 2.494276 18.056296
-0.045178 0.572410 -2.124935 1.264500 45.065800 2.188300 12.988594 29.650402 -28.636158 -3.220572 -1.139850 79.834337 -0.485065 22.271750 -31.315821 0.000000 0.000000 0.000000 -7.293090 -38.096023 -66.768924 -0.219839 0.663374 66.325357 0.621267 9.481822 4.512728 0.000000 0.000000 0.000000 -8.197744 -3.297572 8.012724 0.000000 0.000000 0.000000 5.124726 -0.516722 -9.958599 -15.489923 -14.869510 20.798653 28.634890 -25.871498 -24.862703 0.000000 0.000000 0.000000 -74.719847 -1.755808 79.932812 114.221013 -47.878969 -87.476277 -7.118438 7.951635 -83.653297 0.000000 0.000000 0.000000 59.211183 24.601519 -0.571962 -85.573566 53.018810 -62.873798 0.397979 2.499200 18.093205
-0.045252 0.572247 -2.124904 1.271600 45.048300 2.185000 12.992198 29.704364 -28.651405 -3.218954 -1.138046 79.871472 -0.490672 22.187904 -31.367786 0.000000 0.000000 0.000000 -7.285811 -38.091680 -66.799050 -0.221509 0.663164 66.337857 0.622592 9.486143 4.520978 0.000000 0.000000 0.000000 -8.176036 -3.238321 8.036487 0.000000 0.000000 0.000000 5.084961 -0.505763 -9.951892 -15.478431 -14.862573 20.795147 28.586248 -25.875373 -24.797697 0.000000 0.000000 0.000000 -74.688676 -1.767603 80.014986 114.239766 -47.875139 -87.490806 -7.126216 7.952437 -83.709571 0.000000 0.000000 0.000000 59.221745 24.611839 -0.592716 -85.542336 53.020071 -62.846592 0.393657 2.485943 17.993813
-0.045259 0.572122 -2.124914 1.285400 45.036300 2.157000 13.017964 29.734898 -28.619290 -3.221656 -1.136592 79.897778 -0.489249 22.197782 -31.370797 0.000000 0.000000 0.000000 -7.315090 -38.080691 -66.781192 -0.221977 0.663380 66.350668 0.623528 9.482475 4.521660 0.000000 0.000000 0.000000 -8.178311 -3.212153 8.092189 0.000000 0.000000 0.000000 5.083476 -0.502640 -9.951197 -15.476663 -14.847404 20.783848 28.530351 -25.861368 -24.737314 0.000000 0.000000 0.000000 -74.677997 -1.774675 80.030348 114.224932 -47.876805 -87.479794 -7.133916 7.953249 -83.764711 0.000000 0.000000 0.000000 59.224052 24.625103 -0.601760 -85.496877 53.022384 -62.807062 0.392713 2.483042 17.972049
-0.045358 0.571978 -2.125029 1.229700 45.034300 2.100800 13.074993 29.748934 -28.628916 -3.225204 -1.134758 79.944471 -0.487823 22.212597 -31.370051 0.000000 0.000000 0.000000 -7.275202 -38.074458 -66.783601 -0.223290 0.662700 66.366357 0.624475 9.481442 4.519801 0.000000 0.000000 0.000000 -8.116590 -3.222351 8.130562 0.000000 0.000000 0.000000 5.091377 -0.503363 -9.954948 -15.467628 -14.831544 20.732574 28.438769 -25.841444 -24.675979 0.000000 0.000000 0.000000 -74.692684 -1.771262 79.971850 114.220972 -47.876565 -87.476268 -7.136974 7.953583 -83.787322 0.000000 0.000000 0.000000 59.221778 24.654388 -0.579693 -85.461086 53.023985 -62.774948 0.391735 2.480019 17.949484
-0.045413 0.571880 -2.125269 1.261000 45.041500 2.138800 13.017065 29.719482 -28.705989 -3.222946 -1.132799 80.002625 -0.498993 22.133122 -31.421536 0.000000 0.000000 0.000000 -7.279804 -38.091380 -66.841063 -0.223791 0.661356 66.387630 0.626740 9.507399 4.545727 0.000000 0.000000 0.000000 -8.110645 -3.232767 8.145159 0.000000 0.000000 0.000000 5.094975 -0.504930 -9.970641 -15.462116 -14.827678 20.716389 28.406780 -25.838614 -24.656539 0.000000 0.000000 0.000000 -74.694017 -1.776443 79.907046 114.264217 -47.863667 -87.512316 -7.133027 7.953157 -83.759055 0.000000 0.000000 0.000000 59.217629 24.676379 -0.581960 -85.461267 53.023107 -62.774217 0.389893 2.474324 17.906860
